<?xml version="1.0" encoding="UTF-8"?>
<svg width="1215px" height="190px" viewBox="0 0 1215 190" version="1.1" xmlns="http://www.w3.org/2000/svg" xmlns:xlink="http://www.w3.org/1999/xlink">
    <!-- Generator: Sketch 53.2 (72643) - https://sketchapp.com -->
    <title>Group</title>
    <desc>Created with Sketch.</desc>
    <g id="Page-1" stroke="none" stroke-width="1" fill="none" fill-rule="evenodd">
        <g id="Group" fill-rule="nonzero">
            <g id="LOGO-Belvedere">
                <g id="g10" transform="translate(94.500000, 95.000000) scale(-1, 1) rotate(-180.000000) translate(-94.500000, -95.000000) ">
                    <polygon id="path12" fill="#FCD205" points="188.876943 189.394904 0.202101911 189.394904 0.202101911 0.720063694 188.876943 0.720063694"></polygon>
                    <polygon id="path14" fill="#FFFFFF" points="162.834841 163.980892 25.6161146 163.980892 25.6161146 112.523567 162.834841 112.523567"></polygon>
                    <path d="M25.6161146,112.523567 L25.6161146,26.7621656 L162.834841,26.7621656 L162.834841,112.523567 L128.530764,112.523567 L128.530764,163.980892 L25.6161146,163.980892 L25.6161146,112.523567 Z" id="Combined-Shape" fill="#231F20"></path>
                    <polygon id="wit-boven" fill="#FFFFFF" points="111.346051 129.692548 94.1940127 129.692548 94.1940127 112.54051 111.346051 112.54051"></polygon>
                    <polygon id="wit-beneden" fill="#FFFFFF" points="145.85949 95.4029936 77.2501274 95.4029936 77.2501274 43.9456688 145.85949 43.9456688"></polygon>
                    <polygon id="path24" fill="#FFFFFF" points="34.1915287 112.523567 25.6161146 112.523567 25.6161146 26.7621656 34.1915287 26.7621656"></polygon>
                </g>
            </g>
            <g id="Logo-Belvedere-WOORDMERK-kap" transform="translate(228.000000, 65.000000)" fill="#231F20">
                <g id="g10" transform="translate(494.000000, 31.000000) scale(-1, 1) rotate(-180.000000) translate(-494.000000, -31.000000) ">
                    <g id="g12" transform="translate(0.645730, 2.473690)">
                        <polygon id="path14" points="-5.68434189e-14 45.4788732 21.2743792 45.4788732 30.4523658 22.3974648 39.7476846 45.4788732 61.4988423 45.4788732 61.4988423 0.505915493 43.5619128 0.505915493 43.5619128 22.040507 34.6819128 0.505915493 24.0158557 0.505915493 15.2550503 22.040507 15.2550503 0.505915493 -5.68434189e-14 0.505915493"></polygon>
                    </g>
                    <g id="g16" transform="translate(81.000000, 0.000000)">
                        <g id="g18-Clipped" transform="translate(-0.000000, 0.000000)">
                            <g id="g18" transform="translate(0.231544, 0.845070)">
                                <g id="g24" transform="translate(0.227401, 0.216963)">
                                    <path d="M0,21.3098592 L0,46.8899718 L17.9369295,46.8899718 L17.9369295,21.9047887 C17.9369295,17.2067042 19.0096812,14.9441127 24.075453,14.9441127 C28.9624329,14.9441127 30.2139765,17.2067042 30.2139765,21.9047887 L30.2139765,46.8899718 L48.150906,46.8899718 L48.150906,21.3098592 C48.150906,6.43847887 39.3305034,0.846140845 24.0158557,0.846140845 C8.40322148,0.846140845 0,6.91256338 0,21.3098592" id="path26"></path>
                                </g>
                                <g id="g28" transform="translate(64.055940, 0.467989)">
                                    <path d="M0,7.43661972 L8.58015101,17.5485634 C12.5135738,14.3359437 16.8641779,12.8504789 24.3734396,12.8504789 C28.5452517,12.8504789 29.6776007,13.5625352 29.6776007,14.5162817 C29.6776007,15.9441127 28.7240436,16.0630986 23.6582718,16.5966761 C8.69934564,18.143493 1.90711409,21.5345915 1.90711409,32.0648451 C1.90711409,43.0096901 9.41637584,47.471662 23.1814933,47.471662 C33.6706208,47.471662 39.7476846,45.5102535 44.1578859,42.5337465 L36.7678188,32.4812958 C34.2647315,34.2660845 29.7967953,35.4559437 24.1350503,35.4559437 C20.0824329,35.4559437 19.0692785,34.98 19.0692785,34.0876056 C19.0692785,32.6597746 20.0228356,32.6002817 25.9825671,32.0648451 C39.9283389,30.756 47.1377517,26.9484507 47.1377517,16.2397183 C47.1377517,5.41385915 37.9020302,0.594929577 24.6714262,0.594929577 C13.4689933,0.594929577 5.7809396,2.97464789 0,7.43661972" id="path30"></path>
                                </g>
                                <g id="g32" transform="translate(128.480265, 1.628620)">
                                    <polygon id="path34" points="-3.55271368e-14 45.4788732 41.5970638 45.4788732 41.5970638 32.3904225 17.5197483 32.3904225 17.5197483 29.120169 36.1141107 29.120169 36.1141107 17.4000563 17.5197483 17.4000563 17.5197483 13.7709859 43.146594 13.7709859 43.146594 0.505915493 -3.55271368e-14 0.505915493"></polygon>
                                </g>
                                <g id="g36" transform="translate(189.090735, 0.216963)">
                                    <path d="M-3.50830476e-14,21.3098592 L-3.50830476e-14,46.8899718 L17.9369295,46.8899718 L17.9369295,21.9047887 C17.9369295,17.2067042 19.0096812,14.9441127 24.075453,14.9441127 C28.9624329,14.9441127 30.2139765,17.2067042 30.2139765,21.9047887 L30.2139765,46.8899718 L48.150906,46.8899718 L48.150906,21.3098592 C48.150906,6.43847887 39.3305034,0.846140845 24.0158557,0.846140845 C8.40322148,0.846140845 -3.50830476e-14,6.91256338 -3.50830476e-14,21.3098592" id="path38"></path>
                                </g>
                                <g id="g40" transform="translate(256.554151, 1.628620)">
                                    <polygon id="path42" points="-2.84217094e-14 45.4788732 21.2743792 45.4788732 30.4523658 22.3974648 39.7476846 45.4788732 61.4988423 45.4788732 61.4988423 0.505915493 43.5619128 0.505915493 43.5619128 22.040507 34.6837752 0.505915493 24.0158557 0.505915493 15.2550503 22.040507 15.2550503 0.505915493 -2.84217094e-14 0.505915493"></polygon>
                                </g>
                                <g id="g44" transform="translate(360.625473, 1.492941)">
                                    <path d="M17.6241611,13.0140845 L26.6214933,13.0140845 C28.4094128,13.0140845 29.780151,13.4900282 29.780151,15.6317746 C29.780151,17.7735211 28.647802,18.2494648 26.383104,18.2494648 L17.6241611,18.2494648 L17.6241611,13.0140845 Z M26.561896,29.0771831 C28.2920805,29.0771831 29.0053859,29.7892394 29.0053859,31.1594366 C29.0053859,32.6467606 28.2920805,33.239831 26.6214933,33.239831 L17.6241611,33.239831 L17.6241611,29.0771831 L26.561896,29.0771831 Z M0.104412752,45.6143662 L29.7205537,45.6143662 C42.3533221,45.6143662 45.9887584,40.3789859 45.9887584,33.3011831 C45.9887584,28.1847887 43.6644631,25.3886197 39.3753188,23.8418028 C43.9028523,22.4734648 47.419094,19.8557746 47.419094,13.3115493 C47.419094,5.39898592 43.2491443,0.641408451 29.780151,0.641408451 L0.104412752,0.641408451 L0.104412752,45.6143662 Z" id="path46"></path>
                                </g>
                                <g id="g48" transform="translate(425.511237, 1.628620)">
                                    <polygon id="path50" points="-2.84217094e-14 45.4788732 41.5952013 45.4788732 41.5952013 32.3904225 17.5216107 32.3904225 17.5216107 29.120169 36.1141107 29.120169 36.1141107 17.4000563 17.5216107 17.4000563 17.5216107 13.7709859 43.1447315 13.7709859 43.1447315 0.505915493 -2.84217094e-14 0.505915493"></polygon>
                                </g>
                                <g id="g52" transform="translate(486.599789, 1.628620)">
                                    <polygon id="path54" points="-5.68434189e-14 45.4788732 17.9369295 45.4788732 17.9369295 14.0684507 40.282198 14.0684507 40.282198 0.505915493 -5.68434189e-14 0.505915493"></polygon>
                                </g>
                                <g id="g56" transform="translate(535.051847, 1.628620)">
                                    <polygon id="path58" points="-5.68434189e-14 45.4788732 19.4864597 45.4788732 28.0088758 21.6240563 36.5312919 45.4788732 54.3490268 45.4788732 36.7678188 0.505915493 17.8158725 0.505915493"></polygon>
                                </g>
                                <g id="g60" transform="translate(605.612648, 1.207746)">
                                    <path d="M14.8993289,48.3380282 L17.4024161,58.9872676 L35.9353188,58.9872676 L26.9361242,48.3380282 L14.8993289,48.3380282 Z M0.359446309,45.9006761 L41.9546477,45.9006761 L41.9546477,32.8122254 L17.8791946,32.8122254 L17.8791946,29.5401127 L36.4698322,29.5401127 L36.4698322,17.8218592 L17.8791946,17.8218592 L17.8791946,14.1909296 L43.5041779,14.1909296 L43.5041779,0.925859155 L0.359446309,0.925859155 L0.359446309,45.9006761 Z" id="path62"></path>
                                </g>
                                <g id="g64" transform="translate(666.253544, 1.288208)">
                                    <path d="M23.2114094,13.8732394 C28.8712919,13.8732394 31.7915604,16.5504225 31.7915604,23.3921127 C31.7915604,30.5907606 28.5733054,32.7901408 23.0922148,32.7901408 L18.7416107,32.7901408 L18.7416107,13.8732394 L23.2114094,13.8732394 Z M0.804681208,45.8190986 L23.7459228,45.8190986 C40.7926174,45.8190986 50.2052685,38.0850141 50.2052685,23.6895775 C50.2052685,9.70873239 41.1483389,0.846140845 23.4479362,0.846140845 L0.804681208,0.846140845 L0.804681208,45.8190986 Z" id="path66"></path>
                                </g>
                                <g id="g68" transform="translate(734.043000, 1.701313)">
                                    <path d="M7.44966443,58.4929577 L25.9862919,58.4929577 L28.4893792,47.8437183 L16.4488591,47.8437183 L7.44966443,58.4929577 Z M0.0614597315,45.4063662 L41.6566611,45.4063662 L41.6566611,32.3179155 L17.5830705,32.3179155 L17.5830705,29.047662 L36.1755705,29.047662 L36.1755705,17.3275493 L17.5830705,17.3275493 L17.5830705,13.6984789 L43.2061913,13.6984789 L43.2061913,0.433408451 L0.0614597315,0.433408451 L0.0614597315,45.4063662 Z" id="path70"></path>
                                </g>
                                <g id="g72" transform="translate(794.462082, 1.864214)">
                                    <path d="M28.7986577,26.028169 C30.9441611,26.028169 32.0765101,27.1585352 32.0765101,29.2407887 C32.0765101,31.2635493 31.301745,32.3939155 28.9774497,32.3939155 L18.6689765,32.3939155 L18.6689765,26.028169 L28.7986577,26.028169 Z M18.6689765,0.269577465 L0.73204698,0.269577465 L0.73204698,45.2425352 L31.301745,45.2425352 C44.2325,45.2425352 49.1176174,40.3064789 49.1176174,31.9179718 C49.1176174,25.0167887 46.0800168,21.6851831 41.014245,19.9598873 C44.2902349,19.4244507 46.3780034,17.580169 47.2123658,15.3194366 C48.4639094,11.9896901 48.1640604,8.77707042 48.6408389,4.79104225 C48.8810906,2.82777465 49.4789262,1.3404507 49.9538423,0.924 L49.9538423,0.269577465 L32.1957047,0.269577465 C31.4209396,1.57842254 30.7635067,4.13661972 30.5269799,8.9555493 C30.2867282,13.0587042 29.0966443,13.9510986 26.2341107,13.9510986 L18.6689765,13.9510986 L18.6689765,0.269577465 Z" id="path74"></path>
                                </g>
                                <g id="g76" transform="translate(861.942191, 1.628620)">
                                    <polygon id="path78" points="0 45.4788732 41.5952013 45.4788732 41.5952013 32.3904225 17.5178859 32.3904225 17.5178859 29.120169 36.1103859 29.120169 36.1103859 17.4000563 17.5178859 17.4000563 17.5178859 13.7709859 43.1447315 13.7709859 43.1447315 0.505915493 0 0.505915493"></polygon>
                                </g>
                            </g>
                        </g>
                    </g>
                </g>
            </g>
        </g>
    </g>
</svg>
